<?xml version="1.0" encoding="utf-8"?>
<!-- Generator: Adobe Illustrator 27.5.0, SVG Export Plug-In . SVG Version: 6.00 Build 0)  -->
<svg version="1.1" id="Layer_1" xmlns="http://www.w3.org/2000/svg" xmlns:xlink="http://www.w3.org/1999/xlink" x="0px" y="0px"
	 viewBox="0 0 2560 10000" style="enable-background:new 0 0 2560 10000;" xml:space="preserve">
<style type="text/css">
	.st0{fill:none;stroke:#000000;stroke-miterlimit:10;}
</style>
<g>
	<g>
		<path class="st0" d="M2560-0.81c-136.83,0-273.67-0.13-410.5-0.01c-26.93,0.02-53.86,0.06-80.79,0.04
			c-34.69-0.03-55.96,12.26-85.38,30.41c-30.43,18.77-66.04,38.78-102.75,26.72c-33.57-11.04-48.04-48.76-83.19-54.75
			c-26.18-4.47-53.88,3.86-79.24,9.54c-26.12,5.85-50.9,9.52-77.75,8.11c-43.93-2.3-89.49-16.17-133.55-12.39
			c-27.74,2.39-49.82,19.32-72.11,34.51c-15.98,10.88-39.06,28.56-57.61,13.11c-11.22-9.36-14.79-24.27-27.22-33.51
			c-9.27-6.89-20.74-11.34-31.78-14.4c-30.2-8.36-62.67-7.73-93.71-7.51c-47.08,0.34-93.3,6.1-140.23,7.67
			C1020.13,8.87,958.11-4.2,894.39,8.2c-12.3,12.73-74.91,64.33-30.09,73.71c14.64,3.06,33.86-0.57,31.19,20.28
			c-3.91,30.56-35.19,46.94-35.88,80.06c-0.56,26.82,3.31,55.23,0.05,81.85c-5.06,41.4-47.66,71.97-63.27,109.49
			c-14.54,34.96,23.49,36.09,46.39,47.23c12.18,5.93,24.18,17.56,9.93,28.79c-16.45,12.95-52.24,9.66-72.34,11.18
			c-13.15,0.99-61.4-0.3-67.96,15.75c-7.55,18.49,36.05,45.28,47.02,53.46c27.72,20.68,57.79,39.15,83.13,62.81
			c9.33,8.71,20.91,20.42,15.99,33.6c-1.36-3.64-2.65-7.53-4.26-10.89c-3.98,14.86,3.02,16.94,14.47,10.47
			c10.82-6.12,38.25-40.85,52.38-38.22c8.31,1.55,19.82,64.17,22.29,71.79c11.3,34.86,28.43,71.56,31.2,108.32
			c2-15.13,8.94-39.77,4.66-55.63c-6.78,23.7-2.55,53,2.23,76.62c9.52,47,33.61,91.06,75.48,116.54
			c67.62,41.16,155.94,25.61,227.26,4.73c13.44-3.94,43.12-21.28,58.07-6.63c12.4,12.14,9.88,34.09,21.69,47.21
			c14.15,15.7,45.83,17.09,48.49-7.94c2.42-22.71-13.87-44.45-11.78-67.16c0.88-9.63,3.7-15.42,13.22-18.62
			c5.84-1.97,13.38-1.22,19.46-2.4c14.02-2.72,27.75-8.84,40.97-14.03c43.78-17.16,101.94-48.24,150.44-35.04
			c23.79,6.47,37.24,24.47,42.78,47.93c4.16,17.63,3.84,36.31,2.47,54.23c-0.48,6.31-8.04,33.54-4.09,42.68
			c6.97,16.13,24.33,6.59,37.06,1.28c24.46-10.2,48.64-23.37,75.54-25.56c39.18-3.19,65-3.26,93.99-32.61
			c17.44-17.65,31.71-37.34,57.77-41.95c27.49-4.87,55.12,6.52,80.94,14.31c25.92,7.82,49.61,11.41,76.44,6.14
			c27.75-5.45,55.01-17.47,83.58-17.93c14.12-0.23,27.71,2.95,39,11.8c12.5,9.8,19.39,21.56,35.32,26.85
			c32.65,10.83,70.48-1.13,103.02-6.64c68.4-11.59,142.16-4.6,211.39-4.51C2559.92,587.41,2559.33,293.29,2560-0.81z"/>
		<path class="st0" d="M2560,853.05c-37.91-0.56-75.45,4.61-113.17,7.56c-34.3,2.69-68.46,1.87-102.66,6.06
			c-32.08,3.93-67.28,10.9-99.04,1.4c-27.25-8.15-48.74-26.71-77.43-32.96c-50.79-11.08-103.92-3.36-155.43-10.5
			c-54.11-7.51-95.05-0.9-137.2,35.55c-15.34,13.27-29.7,28.35-48.1,37.47c-19.87,9.85-39.54,7.52-60.75,10.59
			c-22.22,3.22-80.6,36.05-92.5,3c-5.56-15.44-0.27-35.45-6.29-52.09c-4.06-11.2-9.95-20.43-18.57-28.51
			c-14.95-14.03-34.61-19.81-54.64-21.82c-49.14-4.94-96.84,10.72-144.82,18.12c-26.15,4.03-46.47,1.69-33.93,34.18
			c5.83,15.1,31.86,48.43,21.09,65.12c-6.74,10.43-26.31,6.24-34.4,0.93c-11.63-7.64-18.39-21.87-24.09-34.11
			c-11.2-24.06-20.22-78.01-48.5-88.47c-16.12-5.96-45.85,8.39-55.17,10.45c-28.18,6.23-56.94,9.41-85.79,8.89
			c-50.66-0.9-99.69-20.98-136.25-55.81c-24.4-23.24-37.02-53.2-59.08-77.5c-19.67-21.67-25.15,9.41-30.79,27.24"/>
		<path class="st0" d="M2560,824.6c-36.25,1.75-70.03,12.11-105.19,19.98c-34.93,7.81-70.11,7.27-105.63,9.82
			c-32.34,2.32-65.47,5.59-97.7,0.46c-30.71-4.89-54.17-22.59-78.58-40.62c-22.03-16.27-44.68-33.68-72.01-39.58
			c-22.42-4.84-47.66-1.53-70.32,0.64c-47.25,4.53-104.29,13.11-141.28,45.03c-20.82,17.96-37.37,40.63-59.42,57.22
			c-19.72,14.83-38,17.51-61.85,18.06c-23.06,0.54-63.49,9.08-81.66-11.65c-7.13-8.13-9.23-21.27-17.24-30.14
			c-6.62-7.32-14.18-12.89-22.57-18.01c-16.1-9.82-34.3-15.99-52.55-20.49c-42.59-10.51-87.12-12.14-130.8-12.26
			c-7.75-0.02-30.76-3.99-33.89,6.23c-2.52,8.22,9.89,20.89,14.15,26.2c9,11.21,48.71,44.05,42.67,60.52
			c-5.75,15.69-30.65-3.83-35.66-9.14c-18.29-19.39-29.9-47.12-40.59-71.11c-13.64-30.6-25.62-62-40.03-92.26
			c-9.65-20.25-19.8-44.66-36.69-59.93c-14.68-13.27-22.48-10.53-41.08-7.28c-25.03,4.37-47.96,8.63-73.19,9.64
			c-42.06,1.7-84.2-6.82-124.63-17.39c-50.53-13.22-114.09-47.94-154.34,0.2"/>
		<path class="st0" d="M2560,796.13c-36.18,2.26-67.29,16.39-101.17,27.68c-33.8,11.25-67.04,10.21-102.25,10.44
			c-31.66,0.21-63.32,0.45-94.98,0.15c-39.85-0.37-59.3-9.55-85.18-40.92c-18.54-22.47-35.64-51.96-63.78-63.37
			c-21.64-8.77-48.6-1.13-70.07,5.29c-25.49,7.63-49.93,18.56-76.03,24.16c-24.82,5.33-46.67,3.85-67.42,20.78
			c-42.19,34.43-68.97,103.83-132.67,96.14c-11.86-1.43-20.86-5.62-31.47-10.52c-12.81-5.91-24.97-6.86-38.8-8.59
			c-79.97-10.02-148.75-65.41-228.24-79.15c-8.65-1.5-29.16-6.76-29.11,5.77c0.03,7.97,14.59,18.31,19.66,23.01
			c8.1,7.5,63.89,45.34,58.38,59.8c-5.17,13.57-27.9-4.01-32.92-9.21c-23.3-24.1-37.5-61.01-51.18-91
			c-18.6-40.77-35.25-82.47-54.47-122.96c-12.83-27.04-25.63-57.2-45.53-80.02c-20.01-22.95-50.32-13-77.08-9.9
			c-41.23,4.78-82.4,10.03-123.57,15.31c-68.6,8.8-137.16,17.88-205.68,27.22"/>
		<path class="st0" d="M2560,767.67c-38.39,2.22-70.38,18.34-106.45,29.49c-31.42,9.71-62.86,8.5-95.39,8.5
			c-33.48,0-66.96,0-100.45,0c-34.5,0-55.24-8.07-78.63-33.96c-18.86-20.88-37.23-51.8-65.83-60.52
			c-23.18-7.06-50.44,0.88-73.19,6.51c-28.62,7.09-56.81,16.64-85.98,21.36c-25,4.05-46.02,3.1-68.09,17.88
			c-41.15,27.54-77.93,91.02-134.98,80.1c-15.27-2.92-24.76-11.73-36.62-20.82c-15.51-11.89-28.65-13.17-47.89-14.7
			c-66.04-5.26-126.29-39.43-191.17-50.88c-27.93-4.93-41.9-0.63-30.62,28.81c4.76,12.43,24.11,39.48,15.53,52.92
			c-24.05,37.64-80.85-81.73-83.7-87.64c-13.92-28.92-26.92-58.27-40.85-87.19c-12.74-26.43-26.39-58.83-48.14-79.81
			c-19.89-19.18-46.32-11.72-71.65-9.77c-31.47,2.42-62.91,5.14-94.36,7.82c-70.09,5.98-140.17,12.73-210.4,16.9"/>
		<path class="st0" d="M2560,739.21c-37.88,2.16-69.51,17.84-105.04,29.04c-33,10.4-66.09,8.94-100.29,8.94
			c-30.96,0-61.93,0-92.89,0c-33.4,0-55.25-2.31-80.95-25.56c-18.9-17.09-35.24-39.26-61.32-45.45c-25.54-6.06-55.25,0.49-80.82,4.3
			c-34.79,5.18-69.35,12.12-104.35,15.83c-26.9,2.85-52.3,0.92-77.92,10.98c-43.41,17.05-91.34,62.09-141.24,44.83
			c-41.27-14.28-54.17-65.85-101.91-68.31c-43.38-2.23-88.72,3.73-132.13,5.68c-31.5,1.42-52.67,7.03-77.31,27.82
			c-20.78,17.54-40.02,40.05-66.87,48.33c-82.93,25.59-93.18-123.91-150.16-154.33c-16.78-8.96-44.58-5.52-62.59-6.58
			c-25.57-1.51-51.12-3.17-76.68-4.83c-56.7-3.68-113.39-7.83-170.15-10.28"/>
		<path class="st0" d="M2560,710.74c-37.34,2.1-68.69,17.25-103.68,28.6c-32.71,10.61-64.84,9.39-98.82,9.39
			c-32.58,0-65.16,0-97.74,0c-30.56,0-52.82-1.18-77.84-20.07c-18.18-13.73-34.47-30.33-57.76-34.85
			c-29.28-5.68-63.39,0.87-92.74,3.8c-36.62,3.66-73.16,8.21-109.86,10.98c-26.91,2.03-54.02,0.62-80.63,5.57
			c-44.82,8.34-104.57,40.86-149.84,22.08c-46.05-19.09-63.42-93.37-119.24-92.15c-37,0.81-51.88,38.39-85.53,46.38
			c-15.97,3.79-32.72,2.79-48.86,6.66c-20.37,4.89-40.12,12.16-59.74,19.42c-40.95,15.15-81.99,34.51-125.04,43
			c-33.44,6.59-55.96,1.52-77.76-25.28c-15.23-18.72-28.15-44.12-51.79-53.23c-16.16-6.23-36.94-4.69-54.17-7.61
			c-24.37-4.13-48.47-10.02-72.51-15.74c-46.9-11.15-94-24.46-142.18-28.57"/>
		<path class="st0" d="M2560,682.27c-37.62,1.94-66.96,19.23-101.34,32.27c-33.02,12.53-66.46,11.92-101.09,7.57
			c-38.21-4.8-76.01-13.79-114.51-16.12c-27.81-1.68-50.45-1.53-75.74-14.4c-17.62-8.97-32.87-18.95-52.83-22.33
			c-31.49-5.33-65.84,1.15-97.18,4.94c-40.92,4.95-81.73,11.07-122.78,14.87c-26.29,2.44-52.68,2.09-78.93,5.06
			c-36.27,4.09-90.72,23.73-125.13,8.37c-43.59-19.45-41.29-93.3-97.73-92.85c-43.54,0.34-69.82,43.47-110.73,51.93
			c-15.63,3.23-31.71,2.52-47.46,6.11c-18.96,4.32-37.45,10.52-55.85,16.75c-38.38,13-76.7,29.19-116.64,36.88
			c-31.38,6.04-54.19-0.08-78.09-21.04c-17.23-15.11-31.99-33.78-54.25-41.67c-17.15-6.08-37.2-5.28-55.19-7.71
			c-24.9-3.35-49.63-7.99-74.34-12.52c-48.28-8.84-96.63-19.22-145.65-22.87"/>
		<path class="st0" d="M2560,653.82c-37.96,3.37-63.47,24.99-96.21,41.67c-38.58,19.66-72.42,11.71-112.16-1.32
			c-73.6-24.13-144.63-64.68-224.06-52.43c-48.98,7.56-98.38,8.64-147.51,16.46c-52.93,8.42-105.65,18.67-158.84,25.36
			c-19.46,2.45-49.34,9.56-68.07-0.46c-6.03-3.23-8.52-9.27-14.08-12.9c-13.32-8.71-32.17-0.35-44.99-9.29
			c-30.1-20.97,9.97-86.27-38.12-91.67c-30.52-3.42-67.07,16.33-93.84,28.06c-29.4,12.88-59.8,28.6-91.93,33.22
			c-28.5,4.1-55.48,5.76-83.46,13.87c-29.57,8.57-58.78,19.62-89.32,24.34c-28.31,4.37-54.09,1.02-80.45-9.85
			c-22.37-9.23-43.37-21.1-67.8-24.07c-43.61-5.31-89.35-2.73-133.27-4.94c-52.81-2.66-105.66-6.09-158.55-6.26"/>
		<path class="st0" d="M2560,625.36c-38.48,4.17-60.52,29.22-91.63,48.89c-40.97,25.89-77.6,10.77-119.3-7.26
			c-60.63-26.22-119.1-62.26-182.66-81.08c-24.98-7.39-50.35-10.19-68.51,11.16c-9.79,11.51-15.14,21.24-30.64,25.6
			c-13.34,3.75-28.41,2.77-42.15,4.42c-25.37,3.05-50.55,7.73-75.67,12.34c-21.51,3.95-240.06,56.29-242.79,28.86
			c-1.13-11.43,18.55-19.38,19.31-30.14c1.29-18.35-20.18-6.31-29.65-16.01c-19.72-20.18,50.09-84.93,5.48-90.63
			c-36.8-4.7-85.4,19.55-118.77,31.37c-39.16,13.86-79.65,31.36-121.1,37.08c-24.34,3.36-48.4,2.86-72.59,8.27
			c-22.01,4.93-43.65,11.36-66.18,13.54c-52.71,5.12-103.57-9.04-155.94-10.26c-102.27-2.38-205.47,8.67-307.7,11.81"/>
		<path class="st0" d="M2560.01,596.91c-36.69,4.25-61.94,24.99-93.45,41.87c-39.89,21.38-73.59,11.97-114.2-4.09
			c-57.53-22.76-112.53-53.27-171.7-71.68c-28.27-8.79-54.54-11.67-77.92,8.45c-11.6,9.98-20.93,19.89-36.47,23.54
			c-35.47,8.33-74.44,8.17-110.6,14.35c-55.46,9.47-110.67,20.69-166.38,28.69c-10.31,1.48-59.91,14.34-67.41-2.03
			c-4.45-9.7,9.21-18.98,7.65-28.46c-2.58-15.64-24.06-6.62-33.31-14.73c-22.35-19.6,32.03-76.22-16.06-77.59
			c-39.94-1.14-84.55,18.45-122.14,30.07c-40.63,12.56-81.89,27.83-124.16,33.74c-23.61,3.3-47.43,3.01-71.06,7
			c-21.67,3.66-43.15,8.34-65.07,10.34c-48.58,4.44-93.83-8.49-141.83-10.69c-48.98-2.24-98.84,1.27-147.84,1.94
			c-56.02,0.77-112.05,1.26-168.05,2.88"/>
		<path class="st0" d="M2560,568.43c-36.81,1.18-70,12.93-105.45,21.34c-35.01,8.31-67.86,7.13-102.76-1.34
			c-74.82-18.15-145.61-52.65-223.55-33.24c-51.38,12.79-101.62,13.09-154.13,19.25c-42.3,4.96-84.48,11.33-126.94,14.91
			c-21.59,1.83-45.26,4.33-66.52-1.37c-12.4-3.33-22.75-10.92-34.83-14.99c-17.58-5.91-35.76-2.26-53.56-5.89
			c-16.91-3.45-25.54-13.59-38.14-23.94c-13.4-11.01-27.05-14.66-44.41-14.92c-43.44-0.64-88.58,13.22-130.62,22.57
			c-41.69,9.27-83.75,20.26-126.31,24.72c-50.26,5.27-102.88,7.36-153.46,9.17c-21.78,0.78-44.18,1.92-64.42-7.31
			c-12.69-5.79-22.27-11.79-36.61-13.74c-51.51-6.99-105.35-6.31-157.26-10.75c-55.55-4.75-111.16-10.41-166.9-12.16"/>
		<path class="st0" d="M2559.99,539.95c-73.04-1.48-146.02,6.17-219.07,2.66c-64.58-3.1-128.3-6.07-193-4.18
			c-104.51,3.05-209.83,5.78-314.38,4.03c-48.03-0.81-95.83-2.21-143.88-2.03c-47.75,0.18-95.13-6.09-142.94-4.78
			c-90.45,2.47-178.71,28.07-268.92,33.34c-52.69,3.08-106.46,1.38-159.26,1.46c-14.73,0.02-44.86,5.6-54.01-9.62
			c-6.06-10.08,0.54-15.39-14.24-19.88c-18.36-5.58-43.07-3.72-61.95-6.35c-29.91-4.16-59.71-9.12-89.5-14.09
			c-60.11-10.04-120.46-22.26-181.33-26.53"/>
		<path class="st0" d="M2560,511.48c-37.68-1.08-74.46,4.32-111.86,7.79c-35.99,3.34-72.5,2.43-108.6,1.21
			c-65.43-2.22-131.37-1.29-196.66-5.45c-99.49-6.34-197.51,3.42-296.94,3.42c-50.11,0-100.26,0.59-150.36,0.27
			c-52.31-0.33-104.2-8.58-156.58-7.29c-85.23,2.11-167.75,29.36-252.69,34.64c-55.58,3.45-108.1-10.59-163.19-12.67
			c-17.94-0.68-40.79,3.86-56.57-7.04c-8.5-5.87-10.24-10.6-21.75-13.08c-19.84-4.28-41.71-3.59-61.82-6.32
			c-28.23-3.82-56.33-8.68-84.4-13.49c-57.33-9.82-114.87-21.64-173.01-25.37"/>
		<path class="st0" d="M2560,483.05c-41.09,3.12-74.03,24.34-111.43,39.25c-36.63,14.6-71.64,11.35-110.12,7.18
			c-50.92-5.52-101.63-13.97-152.74-17.55c-25.28-1.77-49.4-0.2-72.89-10.91c-39.34-17.94-72.47-23.03-114.69-7.55
			c-20.62,7.56-40.29,17.81-61.79,22.86c-22.54,5.29-46.05,3.64-69.02,3.64c-50.12,0-102.7,4.48-152.49-1.48
			c-59.32-7.1-116.78-36.76-177.08-35.42c-62.28,1.39-118.58,38.38-179.72,46.92c-65.93,9.21-114.55-48.1-174.79-63.49
			c-45.98-11.75-88.23,11.05-133.26,15.52c-86.27,8.56-174.68-19.45-260.99-21.85"/>
		<path class="st0" d="M2560,454.61c-43.58,7.59-70.58,41.86-104.55,67.01c-40.05,29.66-76.29,21.95-123.46,14.68
			c-62.31-9.6-124.26-22.62-186.91-29.9c-20.99-2.44-53.94,3.71-62.71-20.64c-4.88-13.55-2.8-24.55-19.39-29.54
			c-21.14-6.36-43.46,4.94-59.62,17.68c-16.07,12.67-29.35,29.28-47.96,38.53c-21.28,10.58-45.64,7.58-68.67,7.58
			c-49.43,0-105.33,7.18-153.74-3.35c-36.09-7.85-70.32-23.73-104.56-37.12c-27.66-10.82-60.56-26.32-91.09-24.88
			c-45.83,2.16-71.75,49.59-114.77,59.2c-33.97,7.59-64.15-20.25-87.87-40.62c-28.5-24.48-56.32-56.45-91.22-72.03
			c-32.49-14.51-67.62,1.15-98.35,14.18c-30.02,12.73-59.42,27.99-91.36,35.41c-33.16,7.7-69.3,3.76-103.02,2.54
			c-33.83-1.23-67.62-2.64-101.48-2.12"/>
		<path class="st0" d="M2560.02,426.14c-44.42,7.3-72.92,43.75-107.41,69.37c-14.89,11.06-30.51,20.9-49.3,22.68
			c-24.26,2.29-50.16-3.85-74.12-7.47c-60.13-9.08-119.91-21.31-180.35-28.27c-21.45-2.47-52.99,2.96-64.04-20.06
			c-6.19-12.9-5.87-23.14-21.91-27.83c-21.37-6.25-43.08,4.57-59.27,17.72c-15.9,12.91-28.84,29.89-47.42,39.29
			c-20.93,10.59-45.9,8.4-68.64,7.49c-25.13-1-50.14-3.77-75.24-5.25c-24.77-1.45-50.26,1.19-74.59-4.07
			c-36.97-7.99-72.25-23.71-107.52-36.98c-28.11-10.58-61.68-26.32-92.54-24.74c-43.16,2.2-66.16,45.66-106.42,54.91
			c-34.36,7.89-64.31-19.69-88.38-40.36c-28.5-24.48-56.32-56.45-91.22-72.03c-31.6-14.11-66.97,1.08-97.53,12.53
			c-29.41,11.01-58.33,23.82-89.06,30.77c-33.69,7.62-70.7,4.29-105.2,8.09c-34.94,3.85-69.72,8.6-104.94,6.82"/>
		<path class="st0" d="M2560,397.66c-46.01,4.6-83.73,32.01-124.45,51.55c-39.33,18.87-73.61,18.57-116.29,15.46
			c-63.57-4.63-129.4-4.19-192.36-13.7c-42.91-6.48-85.27-14.29-126.42,4.16c-42.89,19.23-78.07,40.51-126.68,25.17
			c-21.25-6.71-40.49-18.37-61.32-26.14c-22.91-8.55-44.77-7.9-68.66-10.54c-67.21-7.42-133.3-33.98-201.23-34.09
			c-44.96-0.08-87.08,17.67-131.62,20.76c-65.07,4.51-111.48-47.89-171.04-64.26c-22.96-6.31-46.71-2.83-69.62-10.28
			c-16.22-5.28-30.31-11.62-47.58-13.26c-46.85-4.45-95.28,15.76-138.8,30.1c-50.88,16.76-102.57,37.98-156.32,42.65"/>
		<path class="st0" d="M2559.98,369.18c-51.72,1.88-99.8,22.44-149.29,35.55c-30.95,8.2-62.41,6.56-93.22,13.53
			c-16.09,3.64-31.03,9.9-47.51,12.06c-32.07,4.21-64.41,5.43-96.52,10.09c-34.96,5.07-69.88,11.22-105.13,13.9
			c-24.43,1.86-48.38,1.64-72.61,6.06c-40.43,7.37-95.11,27.96-132.72,2.86c-19.81-13.23-32.21-34.64-50.31-49.78
			c-19.51-16.32-37.76-16.8-62.19-16.81c-68.83-0.02-138.04-3.24-206.83-5.02c-50.74-1.32-101.07-11.41-151.65-15.08
			c-27.4-1.99-54.44-0.81-81.84-4.45c-28.24-3.75-56.41-9.2-84.96-9.91c-26.44-0.66-44.35-0.33-40.88-32.09
			c1.74-15.86,16.73-46.66,3.1-60.73c-13.57-14.02-42.55-0.12-57.13,4.58c-42.41,13.68-83.67,32.65-124.53,50.25
			c-66.82,28.79-134.92,64.65-206.87,78.29"/>
		<path class="st0" d="M2560,340.73c-52.67,2.52-103.06,19.96-154.21,31.35c-20.15,4.49-40.22,7.8-60.84,8.97
			c-9.58,0.54-22.18-0.1-31,4.35c-9.71,4.91-12.62,10.69-24.55,12.94c-33.62,6.34-68,6.25-101.93,13.49
			c-38.28,8.16-76.84,19.23-116.04,21.83c-24.61,1.64-49.04,1.59-73.61,4.42c-39.19,4.5-104.93,24.98-139.12-1.45
			c-19.56-15.12-29.09-39.53-46.31-56.84c-18.04-18.14-37.69-18.74-62.13-18.6c-67.15,0.4-134.04,8.3-201.23,6.88
			c-54.57-1.15-104.65-25.35-158.74-28.91c-55.89-3.67-112.49,1.74-168.45,1.76c-29.1,0.01-44.77-3.32-37.18-36.29
			c3.81-16.53,24.35-53.97,11.24-70.14c-12.03-14.84-44.28,0.62-57.56,5.02c-44.05,14.58-86.86,34.77-129.24,53.46
			c-68.88,30.37-139.39,68.82-213.86,83.04"/>
		<path class="st0" d="M2560,312.27c-49.84,3-96.98,21.1-144.86,33.89c-22.32,5.96-45.53,11.98-68.82,12.14
			c-6.4,0.04-21.26,1.48-26.15-4.48c-6.93-8.45,2.46-12.09-11.05-17.47c-27.39-10.92-72.45,8.24-97.74,16.82
			c-36.39,12.35-73.1,28.77-111.53,33.49c-28.03,3.44-56.57,3-84.73,6.37c-32.62,3.91-65.16,8.91-97.92,11.52
			c-24.18,1.92-47.23,4.45-67.11-11.84c-38.74-31.75-46.96-79.09-106.77-71.33c-51.89,6.73-98.82,38.04-151.94,37.5
			c-61.88-0.63-110.25-51.38-169.56-62.9c-32.23-6.26-68.15,0.83-100.29,4.72c-33.03,4-66.06,8.9-99.3,10.87
			c-24.5,1.45-45.95,2.01-57.87-22.29c-7.99-16.29-9.04-34.65-28.25-41.95c-18.51-7.04-41.49,0.97-59.3,5.95
			c-29.78,8.33-58.89,18.83-87.98,29.27c-54.56,19.58-110,44.1-167.96,50.98"/>
		<path class="st0" d="M2560,283.81c-50.32,3.95-96.99,25-144.83,39.54c-18.85,5.73-77.85,28.87-86.31-1.63
			c-4.5-16.23,16.39-38.2,1.09-52.01c-21.72-19.59-74.5,11.62-94,21.38c-32.12,16.07-64.64,36.94-100.16,44.72
			c-31.48,6.89-66.34,5.31-98.48,9.21c-38.91,4.72-77.71,10.45-116.74,14.18c-26.09,2.49-53.65,7.17-76.22-9.08
			c-34.07-24.54-55.35-90.57-108.4-69.81c-38.87,15.21-55.23,74.86-102.21,72.55c-31.56-1.55-62.36-28.18-86.66-45.87
			c-28.13-20.48-57.27-46.04-90.97-56.71c-32.94-10.43-76.22,3.21-108.8,9.46c-40.3,7.73-80.57,17.19-121.37,21.89
			c-29.42,3.39-58.06,3.13-87.13-2.59c-21.96-4.32-43.42-9.84-65.89-10.89c-75.22-3.51-147.49,23.43-222.23,20.6"/>
		<path class="st0" d="M2559.99,255.95c-50.44,4.93-97.55,25.15-145.79,39.43c-18.64,5.51-80.78,30-84.4-4.46
			c-1.91-18.16,21.25-46.69,4.79-61.83c-21.79-20.05-75.77,14.41-94.96,25.02c-29.53,16.32-58.79,36.17-91.75,44.82
			c-31.7,8.32-68.34,6.02-100.96,10.36c-44.03,5.86-87.91,13.52-132.15,17.67c-26.9,2.52-51.94,5.12-74.32-12.24
			c-30.17-23.4-60.97-89.78-109.01-67.34c-37.42,17.48-33.82,81.78-81.76,83.91c-34.21,1.52-69.96-33.11-94.31-52.53
			c-27.5-21.94-58.07-52.51-93.06-61.99c-32.68-8.85-72.3,4.04-104.66,10.63c-42.69,8.7-85.23,19.39-128.44,25.19
			c-62.06,8.33-129.05,4.84-191.67,4.41c-59.24-0.4-118.57-2.5-177.8-1.67"/>
		<path class="st0" d="M2559.82,235.66c-52.39,2.4-104.21,11.2-156.22,17.52c-15.1,1.83-82.78,18.55-88.56-4.92
			c-3.33-13.51,17.84-27.46,2.25-38.19c-21.82-15.03-73,8.84-94.01,16.68c-29.51,11-58.84,24.1-90.03,29.55
			c-31.05,5.42-61.34,6.35-92.32,14.3c-56.87,14.59-134.01,52.91-189.78,18.8c-37.22-22.77-84.43-87.02-134.52-66.49
			c-39.79,16.31-45.21,77.47-93.52,79.56c-33.35,1.45-68.09-27.19-93.64-44.82c-27.95-19.28-58.37-45.13-92.27-52.98
			c-30.58-7.08-65.78,1.38-96.44,5.61c-37.69,5.2-75.3,11.66-113.22,14.96c-43.51,3.79-87.23,4.52-130.81,8.49
			c-54.31,4.94-108.7,11.55-163.21,13.89c-15.41,0.66-38.98,5.05-47.53-8.03c-1.14-1.74,1.66-5.85-0.23-8.62
			c-4.24-6.2-19.73-3.94-26.05-4.09"/>
		<path class="st0" d="M2559.57,217.77c-53.12-2.59-106.18-6.28-159.26-9.61c-21.63-1.36-43.27-2.86-64.92-3.84
			c-5.53-0.25-32.17,3.16-36.3-0.88c-6.85-6.71,4.97-3.29,2.17-8.98c-4.11-8.35-57.75-0.2-66.9,0.76
			c-30.08,3.15-59.83,8.89-89.87,12.34c-22.86,2.62-47.22-0.04-69.54,5.53c-53.48,13.34-97.45,57.96-152.74,64.78
			c-59.16,7.29-113.59-50.46-164.86-71.55c-22.25-9.15-46.26-14.48-68.77-3.11c-18.66,9.43-31.63,27.13-46.04,41.68
			c-16.6,16.76-34.59,29.62-59.29,28.45c-26.45-1.25-51.14-14.81-73.96-27.13c-30.08-16.24-59.49-36.31-92.51-46.09
			c-22.89-6.77-47.53-4.89-71.17-4.48c-65.45,1.13-132.21,0.21-197.28,6.85c-78.43,7.99-156.57,18.86-234.81,28.44
			c-37.5,4.59-75.02,9.33-112.66,12.56c-9.92,0.85-25.67,4.7-34.6-0.74c13.15-12.24,36.54-16.15,53.24-21.89
			c10.59-3.64,41.87-9.9,47.1-21.16c-2.33-0.42-4.67-0.85-7-1.27"/>
		<path class="st0" d="M2559.49,193.27c-58.36-2.44-116.02-13.49-173.84-21.15c-29.76-3.95-66.11-11.91-96.31-5.52
			c1.04,0.6,2.66,1.89,3.55,2.39c-19.77,3.42-41.03,1.09-61.06,1.58c-29.63,0.72-59.23,2.39-88.85,3.42
			c-26.6,0.93-55.47-2.63-80.92,6.11c-27.47,9.43-50.74,28.26-75,43.66c-22.26,14.13-46.77,29.04-74.1,26.32
			c-32.44-3.22-64.36-22.18-93.07-36.23c-50.8-24.87-108.08-63.61-160.06-22.55c-18.64,14.72-33.83,34.59-55.45,45.31
			c-25.17,12.49-50.04,6.83-75.32-2.56c-32.02-11.9-61.98-28.64-93.46-41.82c-28.56-11.96-53.84-15.63-84.5-16.24
			c-59.4-1.19-118.88-9.71-178.28-4.28c-90.98,8.31-181.51,22.49-272.06,34.38c-39.19,5.14-78.37,10.41-117.66,14.73
			c-4.71,0.52-59.91,10.96-63.43,2.16c21.52-14.51,52.58-18.94,77.21-26.27c15.61-4.65,58.86-10.94,69.81-25.32
			c-2.23-0.44-4.46-0.89-6.69-1.33"/>
		<path class="st0" d="M2559.49,164.81c-125.21-3.98-252.99-36.86-378.08-15.73c-31.03,5.24-62.05,11.87-93.55,13.51
			c-25.88,1.35-50.09,4.22-75.17,11.18c-29.53,8.19-58.45,18.81-88.52,24.97c-28.89,5.92-55.81,2.77-84.85-0.72
			c-36.72-4.41-73.33-9.72-110.02-14.34c-26.88-3.39-57.28-10.06-84.33-4.83c-29.84,5.77-46.93,28.02-79.48,28.38
			c-66.74,0.74-132.81-28.52-198.82-36.37c-27.21-3.24-52.29-3.14-78.89-11.01c-22.46-6.64-44.29-14.95-67.74-17.48
			c-46.75-5.05-96.25,5.45-142.47,11.14c-67.7,8.34-135.45,18.78-203.49,24.08c-4.23,0.33-37.25,5.58-38.16-2.42
			c-0.39-3.43,14.18-9.12,16.27-10.16c5.1-2.54,49.35-23.08,19.41-20.93"/>
		<path class="st0" d="M2559.52,136.36c-43.45,0.08-86.77-2.96-130.17-4.76c-32.47-1.35-65.22,0.19-97.45-4.44
			c-25.77-3.7-50.93-10.48-76.92-12.84c-35.06-3.19-66.5,4.8-99.48,16.07c-28.84,9.86-57.59,21.7-87.85,26.49
			c-28.34,4.49-58.93-0.49-87.35-2.31c-62.89-4.03-123.57-12.16-185.65,1.19c-41.64,8.95-82.81,19.92-124.33,29.39
			c-20.95,4.78-66.46,21.86-87.65,10.9c-11.35-5.87-4.98-6.93-7-16.32c-2.58-12.03-11.1-12.77-24.35-13.29
			c-75.3-2.92-152.9,2.68-228.27,5.26c-24.02,0.82-42.85-1.73-60.86-18.76c-13.9-13.13-24.43-29.64-43.32-36.35
			c-24.35-8.64-55.21-2.83-80.35-0.54c-31.9,2.91-63.82,7.13-95.87,8.06c-51.61,1.48-102.51-5.72-154.04-4.9"/>
		<path class="st0" d="M2559.5,107.83c-70.93,0-146.2,7-216.38-4.37c-33.43-5.42-66.28-14.48-100.07-17.7
			c-33.93-3.23-63.38,5.38-94.37,18.53c-30.61,12.99-61.29,30.08-94.52,35.38c-27.6,4.4-56.56-2.23-83.55-7.73
			c-35.72-7.28-71.02-16.78-106.98-22.82c-31.74-5.33-57.01-1.8-87.68,8.79c-44.85,15.49-87.7,36.22-131.9,53.39
			c-15.73,6.11-72.04,33.45-90.05,18.12c-20.81-17.72,40.98-56.03-10.23-57.17c-78.44-1.74-156.99,21.43-235.27,25.59
			c-26.75,1.42-46.5-0.47-59.85-25.84c-8.02-15.25-12.49-33.97-28.71-42.87c-16.49-9.05-42.43-4.55-61-4.85
			c-11.94-0.19-23.88-0.42-35.82-0.48c-75.84-0.39-151.4,7.3-227.2,8.78"/>
		<path class="st0" d="M2559.64,72.86c-72.27,0-146.59,4.98-218.46-3.52c-32.71-3.87-65.18-9.97-98.08-12.22
			c-34.16-2.34-65.05,4.45-97.5,14.64c-27.84,8.75-55.51,18.98-84.5,23.23c-28.12,4.13-58.08,3.1-86.49,4.35
			c-35.3,1.55-71.48,1.76-105.86-7.61c-14.93-4.07-29.5-13.88-44.44-15.99c-15.03-2.12-31.38,1.7-45.81,5.44
			c-39.28,10.17-76.63,26.93-114.76,40.55c-21.55,7.7-61.26,25.97-85.02,15.45c-25.39-11.24-4.55-43.67-41.86-44.65
			c-33.8-0.89-73.03,17.8-104.65,27.48c-30.84,9.45-67.22,23.33-100.16,20.06c-46.1-4.58-68-62.39-110.05-78.43
			c-33.07-12.62-77.35-4.48-112.52-3.94c-79.49,1.21-161.19,12.49-239.64,24.81"/>
		<path class="st0" d="M2559.87,33.52c-73.38,0-147.19,2.24-220.5-1.11c-63.58-2.91-126.25-7.9-189.66,0.25
			c-28.43,3.65-56.84,8.24-85.53,9.13c-30.54,0.95-55.26,8.25-84.07,18.34c-33.7,11.8-70.03,22.96-105.68,12.55
			c-31.24-9.13-47.54-34.8-81.8-33.98c-59.68,1.43-113.54,37.15-174.24,30.76c-34.2-3.6-65.59-30.07-101.19-24.03
			c-27.75,4.7-54.35,27.84-77.29,42.6c-16.77,10.79-44.14,32.28-65.95,26.33c-12.67-3.46-21.9-16.89-31.99-25.04
			c-10.94-8.84-22.5-16.89-34.64-24c-25.28-14.8-52.9-25.67-81.37-32.49c-43.29-10.37-88-0.99-131.93,0.19
			c-39.36,1.06-79.25,8.39-118.33,13.43c-43.35,5.59-86.13,12.83-128.51,23.6"/>
		<path class="st0" d="M953.56,1.43c-9.87,12.22-37.82,37.9-28.92,57.55c4.29,9.48,14.01,11.29,22.31,16.21
			c29.37,17.41,4.34,35.95-15.79,48.48c-18.07,11.25-37.65,19.83-56.04,30.53c-12.1,7.04-29.97,14.26-35.47,28.12
			c-9.14,23.06,18.59,34.47,34.68,43.14c17.92,9.66,41.31,17.51,39.75,40.98c-0.99,14.93-3.96,30.2-5.52,45.14
			c-1.53,14.68-4.92,30.03-3.94,44.67c1.04,15.52,3.67,31.27,5.01,46.83c1.22,14.11,8.83,35.05-0.95,46.51
			c-13.09,15.34-52.86,16.87-70.94,21.69c-18.89,5.03-46.47,13.52-27.07,35.99c24.77,28.69,65.74,46.19,96.44,67.57
			c8.51,5.93,51.98,33.77,36.42,49.24c-4.23,4.21-9.13-1.42-13.36,1.72c-2.77,2.06-3.73,12.31-2.37,14.2
			c5.85,8.11,21.53-6.27,25.24-8.88c16.32-11.47,31.27-24.83,47.18-36.84c9.14-6.9,20.59-18.38,32.76-17.51
			c-1.63,9.37-12.21,17.41-15.76,27.21c-4.97,13.69-7.2,28.77-9.95,43.01c-4.53,23.42-5.86,76.78-30.72,89.49"/>
		<path class="st0" d="M1007.3,3.96c-17.47,33.49-10.58,40.58,12.73,62.83c5.44,5.2,16.42,13.34,13.92,22.78
			c-5.15,19.49-55.7,31.35-72.86,38c-40.98,15.89-83.11,28.86-124.35,44.06c-7.98,2.94-77.34,23.48-82.64,37.94
			c-5.93,16.17,15.05,18.24,28.2,20.79c27.95,5.43,56.6,7.23,84.87,10c26.19,2.57,53.56,3.62,79.01,10.6
			c5.24,1.79,10.48,3.59,15.72,5.38c4.92,3.17,8.41,7.42,10.49,12.77c15.24,9.84,39.83,2.02,56.18,0.58
			c17.07-1.5,38.33-4.36,33.11,17.66c-3.51,14.82-16.02,29.64-24.41,42.27c-11.26,16.96-23.21,33.45-34.66,50.28
			c-9.62,14.14-20.2,28.98-27.53,44.54c-4.78,10.16-3.55,17.16-6.89,27.09c-5.25,15.59-20.43,24.41-30.37,36.56
			c-39.32,48.12,58.56,73.42,88.05,90.72c15.33,8.99,40.03,21.67,27.04,42.61c-6.69,10.79-20.85,13-28.31,22.89
			c-3.03,4.02-8.34,14.43-3.24,19.22c6.25,5.86,49.94-29,49.13-28.4c25.17-18.57,49.09-38.99,74.68-56.99
			c10.44-7.34,29.72-26.42,43.04-20.06c-86.56,87.14-79.26,231.56-163.82,320.52"/>
		<path class="st0" d="M1060.69,7.02c2.21,19.63,10.82,30.22,22.87,45.34c5.57,6.24,10.17,13.12,13.81,20.65
			c5.35,7.73,4.09,13.72-3.76,17.97c-12.29,14.53-28.85,22.82-49.68,24.86c-44.26,15.25-88.84,29.49-133.75,42.72
			c-61.68,18.97-140.5,31.83-192.12,72.94c38.71,24.45,101.82,15.41,145.53,16.03c44.76,0.63,94.22-4.43,137.89,5.86
			c12.86-0.83,21.24,4,25.13,14.49c4.01,0.42,8.01,0.84,12.02,1.26c27.31-0.62,57.48-17.26,82.82-26.2
			c8.04-2.83,55.67-23.91,61.12-10.73c5.28,12.77-29.35,49-32.95,53.33c-23.68,28.5-49.24,55.42-73.71,83.23
			c-16.52,18.78-45.94,45.04-50.77,71.02c-3.66,19.68-1.29,42.52-1.56,62.71c-0.11,7.96-2.45,21.33,0.68,29.05
			c7.77,19.14,40.26,26.69,57.01,33.16c22.45,8.67,75.83,19.39,61.29,52.38c-10.18,23.1-45.21,28.88-46.53,57.5
			c12.26,4.01,23.07,0.01,32.42-12c24.43-17.05,48.36-34.76,71.79-53.15c12.3-9.35,81.92-73.89,99.17-63.94
			c10.41,7.05,10.05,18.33-1.1,33.85c-3.17,38.36-5.61,76.76-7.34,115.21c-3.85,72.76-4.95,146.05-15.7,218.19"/>
		<path class="st0" d="M1108.04,5.39c3.24,17.9,10.85,31,19.49,46.77c4.24,7.08,7.6,14.55,10.06,22.43
			c4.96,9.1,2.61,15.43-7.03,19.01c-41.37,33.84-108.15,47.11-157.5,64.64c-33.87,11.42-67.29,24.02-100.26,37.8
			c-19.02,2.26-30.62,11.43-34.8,27.51c47.48,19.26,102.91,16.87,153.44,20.82c22.41,1.75,45.04,3.32,66.85,8.94
			c13.11,3.38,13.95,9.15,24.67,14.21c21.69,10.24,55.2-5.8,77.19-10.79c13.76-3.12,44.66-13.74,43.95,7.82
			c-0.34,10.32-16.5,27.22-22.31,34.8c-11.41,14.87-23.97,28.93-36.16,43.15c-19.06,22.23-49.07,48.87-58.35,77.57
			c-5.01,15.5-5.22,31.47-11.45,47.14c-6.8,17.1-16.74,34.57-19.97,52.85c-4.78,27.03,15.15,33.39,38.03,40.81
			c28.4,9.2,64.2,12.88,89.51,29.34c37.18,24.18-20.21,59.55-34.67,81.9c-3.09,4.77-10.13,13.52-5.87,19.15
			c5.76,7.6,32.71-6.07,39.53-8.81c34.87-14.01,68.65-30.41,103.09-45.41c13.23-5.67,26.45-11.34,39.68-17.01
			c9.56-3.29,19.11-6.58,28.67-9.87c15.91,0.78,10.69,12.68,10.24,25.81c-1.03,30.19-4.49,60.47-7.16,90.54
			c-5.28,59.4-12.19,118.79-13.41,178.44"/>
		<path class="st0" d="M1145.97,1.78c1.09,22.59,8.1,43.24,11.53,65.4c1.43,9.27,3.3,20.61-0.99,29.56
			c-8.29,17.32-46.09,34.81-60.41,43.41c-16.77,10.07-77.33,35.27-60.88,64.1c12.48,21.87,60.23,26.66,80.68,37.95
			c13.7,7.56,13.99,10.19,18.12,22.25c2.72,7.95,2.74,12.41,10.24,17.68c13.38,9.41,34.78,6.17,41.38,23.81
			c5.79,15.46-5.16,32.1-12.75,44.68c-9.49,15.72-14.9,27.73-19,45.32c-8.28,35.49-41.28,66.17-62.76,94.6
			c-11.77,15.57-51.4,55.32-24.51,70.67c17.85,10.19,42.1,11.78,61.85,15.21c25.02,4.35,50.29,7.85,75.07,13.52
			c12.67,2.9,39.21,6.84,39.4,24.6c0.09,8.29-8.89,20.14-13.16,26.62c-10.77,16.37-23.98,31.09-35.53,46.89
			c-6.78,9.28-20.43,23.86-19.83,35.77c0.95,19.03,22.3,18.79,38.93,20.65c37.55,4.2,76.27,1.48,113.94,1.42
			c22.2-0.38,44.39,0.19,66.56,1.72c9.71,1.83,19.42,3.66,29.13,5.5c17.55,10.85-2.13,39.27-7.51,50.99
			c-20.14,43.88-44.78,86.38-59.42,132.49"/>
		<path class="st0" d="M1189.16-0.73c-0.49,42.38,5.97,87.28-1.14,129.06c-6.44,37.84-1.43,72.6,1.38,110.38
			c1.36,18.25-1.71,36.43-0.77,54.78c0.79,15.49,2.23,30.81,2.51,46.33c0.3,16.23-0.79,18.1,12.67,22.51
			c9.86,3.23,13.45-1.33,14.4,12.42c0.9,13.2-17.02,30.05-24.94,39.83c-20.23,24.97-43.4,47.87-64.97,71.66
			c-15.46,17.04-33.33,33.92-45.08,53.77c-6.91,11.68-15.73,20.07-1.63,29.28c18.76,12.24,62.51,13.05,82.59,15.34
			c28.2,3.21,56.45,5.76,84.43,10.58c11.68,2.01,39.31,2.82,43.56,17.51c3.16,10.93-17.05,38.44-21.46,45.06
			c-17.13,25.73-51.85,59.32-57.33,90.78c-3.49,20,22.98,26.36,37.53,31.75c38.33,14.19,78.07,23.81,117.46,34.53
			c24.43,5.94,48.53,13,72.29,21.16c17.24,4.5,33.49,11.41,48.75,20.73c10.02,14.24-1.81,20.81-12.21,30.09
			c-29.78,26.59-74,39-95.17,74.21"/>
		<path class="st0" d="M1248.23-0.98c3.63,32.54-6.03,50.91-15.02,80.51c-6.31,20.76-2.84,38.32,4.09,58.14
			c6.24,17.83,6.23,30.96,7.61,49.4c1.18,15.87,7.48,30.34,10.28,45.84c7.01,38.78-10.69,73.13-11.61,111.16
			c-0.35,14.58,2.85,20.55,14.91,28.23c10.42,6.63,19.22,9.66,18.53,23.63c-0.73,14.63-16.86,27.95-26.45,37.93
			c-21.72,22.59-47.17,42.05-70.38,63.03c-13.31,12.04-76.55,59.59-41.32,74.55c21.64,9.19,48.17,9.27,71.13,11.48
			c28.83,2.77,57.86,4.6,86.54,8.8c13.79,2.02,43.79,3.51,44.69,22.72c0.4,8.6-8.38,22.21-12.04,29.57
			c-9.28,18.65-20.28,36.43-30.12,54.79c-5.87,10.95-18.38,27.75-17.72,40.21c-4.15,8.29-0.66,14.46,10.46,18.49
			c8.85,4.4,17.69,8.8,26.54,13.2c32.1,14.4,66.28,24.57,99.42,36.22c26.98,9.48,62.37,16.9,84.95,35.71
			c17.73,14.77,1.84,26.48-11.63,37.08c-26.88,21.14-62.38,32.9-78.65,64.44"/>
		<path class="st0" d="M1311.12,4.83c1.33,30.38-0.21,50.76-19.64,74.33c-10.64,12.91-26.14,21.64-35.35,35.75
			c-13.25,20.33-6.79,31.94,15.07,39.58c8.03,2.8,18.59,4.73,24.98,10.97c7.18,7.01,5,14.51,9.17,22.29
			c8.25,15.35,25.23,19.23,35.42,32.28c26.08,33.39-32.53,89.11-40.26,121.85c-5.21,22.06,7.42,40.75,18.14,59.19
			c8.06,13.87,25.75,35.86,22.65,53.2c-2.41,13.5-22.68,22.87-33,28.75c-21.34,12.16-43.6,22.44-65.49,33.56
			c-12.77,6.49-88.69,40.64-47.72,54.89c49.9,17.36,107.63,4.05,158.89,15c9.38,2,25.79,3.32,29.95,14.27
			c2.98,7.83-1.55,24.55-2.71,32.88c-3.3,23.7-12.14,50.77-10.31,74.87c2.17,28.61,32.18,42.79,53.6,57.92
			c23.2,16.39,52.67,35.27,30.58,65.09c-17.37,23.45-43.34,35.37-51.64,64.63"/>
		<path class="st0" d="M1359.78,29.71c3.9,34.31,5.54,58.92-22.46,81.97c-14.89,12.25-35.18,16.93-49.63,29.46
			c-30.56,26.48-0.63,29.55,24.94,28.76c11.21-0.35,27.07-4.5,37.91,0.17c9.83,4.23,7.88,10.11,13.78,17.84
			c11.66,15.26,36.01,11.55,52.32,18.92c43.15,19.5-50.1,107.6-59.41,132.72c-9.43,25.45,7.1,53.45,16.83,76.99
			c8.64,20.91,32.85,59.2,27.83,82.97c-5.78,27.38-87.45,31.49-109.87,36.74c-11.43,2.68-85.62,22.79-40.75,35.24
			c47.04,13.05,99.13,1.79,147.13,8.86c9.56,1.41,24.29,2.53,30.16,11.89c3.59,5.73,5.34,26.28,7.45,33.02
			c5.96,19.02,16.46,39.41,17.46,59.52c0.89,17.95-5.64,38.44-8.09,56.27c-2.54,18.43-3.94,41.37-11.36,58.48
			c-9.15,21.11-22.57,35.89-25.15,59.37"/>
		<path class="st0" d="M1391.9,60.94c5.19,29.2,9.29,48.31-16.14,67.88c-8.77,6.75-23.57,9.97-31.08,17.93
			c-20.42,21.66,16.54,24.89,32.66,26.69c10.01,1.11,21.93,0.49,31.09,5.24c10.57,5.49,8.22,13.42,14.98,20.82
			c14.06,15.41,40.9,11.03,57.12,22.48c41.57,29.35-62.98,94.15-69.64,126.19c-5.09,24.46,11.08,54.75,19.47,77.14
			c6.07,16.19,26.37,52.22,21.34,70.06c-6.68,23.69-66.85,29.14-85.71,33.69c-5.71,1.38-82.96,20.55-50.64,36.48
			c20.18,9.95,50.4,5.08,71.86,4.81c22.76-0.28,45.5-0.89,68.23,0.41c15.41,0.88,34.46-0.77,39.69,16.81
			c2.29,7.68,1.87,17.46,2.29,25.42c2.31,43.38,2.39,85.62,2.52,129c0.05,18.3,1.8,39.77-4.08,57.2
			c-4.55,13.48-15.84,23.19-14.42,38.58"/>
		<path class="st0" d="M1435.05,41.14c8.65,32.96,5.9,52.67-1.24,84.51c-4.39,19.59-1.46,32.37,12.8,46.86
			c16.16,16.42,32.87,24.65,39.68,47.95c6.08,20.78,25.2,27.72,42.94,37.55c13.03,7.22,37.48,19.85,28.75,38.69
			c-8.93,19.27-42.93,29.51-59.91,39.22c-17.67,10.11-32.91,19.54-30.64,41.58c1.84,17.91,7.44,35.37,11.47,52.85
			c3.98,17.25,10.05,37.08-1.27,52.28c-11.81,15.85-33.2,22.92-48.18,35.26c-17.02,14.03-22.9,28.23,2.31,33.25
			c37.85,7.54,82.57-6.55,120.88-7.76c10.11-0.32,29.46-2.72,34,8.07c3.71,8.81-3.37,17.87-7.84,25.35
			c-14.21,23.77-38.63,42.42-49.26,68.3c-10.42,25.37,10.63,58.64,20.58,81.36c13.5,30.83,27.46,61.11,37,93.45
			c8.02-4.46,0.31-13.82,9.95-16.46"/>
		<path class="st0" d="M1486.16,11c8.74,33.87,20.47,66.88,29.17,100.75c6.92,26.93,9.42,52.06,19.96,78.35
			c4.26,10.62,9.04,21.27,12.18,32.3c3.28,11.54,2.43,23.15,6.85,33.99c10.21,25.05,43.6,36.36,60.56,56
			c45.45,52.63-73.34,32.57-89.08,58.3c-5.42,8.86-2.89,26.71-3.51,36.82c-0.73,11.86-1.99,23.81-2.16,35.69
			c-0.25,18.12-2.28,33.35-5.45,51.33c-1.18,6.73-2.77,13.68-2.84,20.54c-0.14,13.03-0.54,16.42,9.7,21.29
			c14.71,6.99,41.89-2.42,57.58-5.31c23.58-4.33,46.89-9.89,70.82-12.02c10.7-0.95,22.35-2.94,25.9,6.92
			c4.08,11.32-19.72,26.95-27.34,33.06c-17.79,14.25-37.13,26.59-55.44,40.14c-10.76,7.96-34.87,22.79-37.89,36.99
			c-2.76,13.01,10.92,32.08,16.37,42.42c15.97,30.33,35.54,59.2,53.47,88.42c14.65,23.88,43.85,59.19,46.89,87.46
			c0.51,4.78-8.71,1.85-2.61,8.1"/>
		<path class="st0" d="M1539.1,8.08c6.65,38.45,15.45,76.47,22.58,114.82c4.7,25.28,7.75,44.36,21.49,66.97
			c6.29,10.35,13.36,20.46,17.17,32.07c3.16,9.62,2.16,20.48,5.83,29.84c9.62,24.56,41.53,37.58,57.93,56.9
			c42.66,50.25-59.78,36.52-76.79,62.47c-5.61,8.56-3.88,28.07-5.57,38.51c-2.04,12.6-3.85,24.81-4.12,37.6
			c-0.46,21.1-15.27,77.1,4.3,87.74c11.36,6.18,32.4,0.16,44.85-1.6c22.13-3.13,45.1-8.91,67.55-9.44
			c11.1-0.26,22.8-1.28,24.3,10.36c1.41,10.92-18.42,24.57-26,30.92c-25.38,21.24-69.52,42.14-85.75,72.08
			c-9.45,17.44,8.81,41.62,16.95,55.38c16.23,27.42,33.99,53.93,51.15,80.76c14.29,22.34,32.76,45.8,41.19,71.32
			c4.94,14.93-0.11,24.11-6.4,36.89c-12.86,26.14-30.67,47.83-40.23,75.73"/>
		<path class="st0" d="M1586.7,13.62c-4.84,42.06-18.16,82.33-26.06,123.82c-1.97,10.33-8.64,27.2-1.29,36.93
			c7.63,10.1,29.98,12.16,40.63,14.23c11.32,2.2,26.21,2.76,35.33,10.34c9.05,7.52,6.17,11.71,11.04,22.61
			c8.96,20.05,30.39,31.83,43.96,48.3c30.17,36.65-17.3,63.18-24.71,97.94c-7.46,34.98-8.11,73.54-11.97,109.21
			c-1.67,15.44-7.48,18.47-16.73,29.25c-7.89,9.2-13.6,21.7-5,32.77c10.99,14.13,42.25,10.18,57.36,16.36
			c23.68,9.69,15.07,29.13,4.42,46.86c-14.61,24.32-45.41,51.07-49.05,80.18c-1.91,15.32,6.38,28.49,13.71,41.6
			c12.98,23.19,28.4,45.1,42.87,67.36c12.6,19.39,28.16,39.53,35.88,61.63c5.13,14.68-0.15,26.61-6.57,39.76
			c-9.72,19.9-20.95,37.28-27.3,58.78"/>
		<path class="st0" d="M1634.67,18.89c-17.36,51.38-50.18,95.9-73.31,144.71c-5.58,11.78-17.57,26.45-1.41,33.26
			c14.14,5.96,41.55-6.8,55.02-10.43c16.68-4.49,39.17-13.63,56.5-12.16c13.34,1.13,11.21,6.34,15.54,17.23
			c7.31,18.4,24.38,29.36,34.14,46.16c8.95,15.4,8.41,34.54,10.68,51.96c3.1,23.76,6.34,47.5,9.35,71.27
			c2.98,23.45-0.88,46.59-4.05,69.88c-3.23,23.66-2.01,52.23-8.35,75c-8.19,29.38-48.43-8.24-47.09,34.94
			c0.49,15.81,8.24,29.58,11.14,44.85c3.59,18.87,2.05,40.05-0.12,58.95c-2.91,25.45-9.5,51.25-8.52,77
			c1.31,34.46,31.26,66.31,49.15,93.78c16.02,24.6,32.01,46.5,28.04,76.53c-1.72,13.06-4.33,25.21-4.98,38.47"/>
		<path class="st0" d="M1689.68,17c-17.55,52.59-53.78,96.17-77.85,145.76c-6.44,13.27-15.68,25.42,0.37,32.22
			c10.4,4.41,35.42-4.77,45.65-6.96c14.33-3.07,55.73-18.46,71.63-13.15c11.23,3.75,7.51,4.99,12.01,14.06
			c7.85,15.83,18.13,30.47,25.88,46.29c9.11,18.58,8.65,39.67,13.14,59.67c5.69,25.34,14.59,50.97,16.96,76.96
			c2.13,23.37-2.54,48.52-4.74,71.78c-2.04,21.57-1.13,45.24-5.72,66.33c-3.78,17.36-16.01,10.75-29.98,8.67
			c-20.49-3.06-18.48,5.15-19.32,22.81c-0.91,19.02-8.16,36.86-10.89,55.58c-2.54,17.38-2.27,36.13,0.09,53.54
			c3.3,24.37,10.85,48.14,11.07,72.89c0.31,33.93,24.23,59.49,43.05,86.42c16.59,23.73,31.48,45.06,29.82,74.83
			c-0.76,13.65-3.43,26.61-2.27,40.4"/>
		<path class="st0" d="M1750.52,4.16c-10.33,44.41-36.03,81.82-49.55,124.98c-4.25,13.57-11.11,25.52,1.87,36.52
			c9.74,8.25,27.09,11.46,38.91,15.01c25.87,7.78,66.05,9.96,69.89,41.45c1.86,15.22-0.27,32.11-0.35,47.42
			c-0.26,47.24,15.21,90.85,19.51,137.46c1.7,18.49,2.58,36.46,5.58,54.85c2.33,14.34,8.97,34.2,5.28,48.45
			c-4.36,16.82-15.5,10.46-29.78,8.33c-21.7-3.24-17.2,7.73-24.63,24.58c-15.02,34.05-100.96,83.76-56.98,121.99
			c17.53,15.24,50.52,24.8,60.07,47.6c4.61,11.01,4.71,19.78,11.29,30.25c8.14,12.95,19.81,23.35,30.03,34.62
			c19.93,21.96,30.56,38.42,24.78,68.77c-4.63,24.3-13.13,45.54-13.82,70.54"/>
		<path class="st0" d="M1805.74,3.42c-1.92,29.66-9.96,57.89-14.43,87.15c-2.38,15.56-3.17,25.4,2.2,39.57
			c7.18,18.96,24.79,33.68,38.63,48.03c19.61,20.33,60.34,50.08,49.06,82.96c-5.63,16.42-18.22,29.4-26.26,44.55
			c-20.79,39.17,4.57,93.68,7.89,135.15c1.45,18.11,3.88,25.89,16.02,39.51c7.3,8.19,19.02,17.85,17.42,30.34
			c-2.24,17.49-18.07,9.38-30.58,7.76c-19.39-2.52-16.05,9.19-25.37,22.77c-25.37,36.97-75.66,60.58-108.8,89.45
			c-8.4,7.31-31.87,23.73-26.43,35.96c5.29,11.92,26.5,14.1,37.5,15.88c28.27,4.57,78.57-0.38,99.61,20.62
			c6.96,6.95,6.86,15.84,14.25,23.08c8.23,8.04,19.24,12.97,28.46,19.68c21.23,15.45,23.27,29.99,15.89,54.9
			c-9.69,32.69-26.49,60.89-30.73,95.24"/>
		<path class="st0" d="M1863.81,48.57c-2.41,16.67-7.25,34.35-7.76,51.13c-0.9,29.3,19.7,51.7,36.92,74.33
			c17.82,23.43,55.88,57.17,47,89.71c-5.35,19.61-22.75,34.47-31.99,52.16c-9.23,17.66-5.31,35.78-3.57,54.85
			c2.41,26.53,4.55,53.11,7.23,79.61c1.74,17.2,3.29,24.28,18.55,33.23c8.92,5.24,20.94,10.84,19.2,23.89
			c-2.17,16.24-17.83,10.38-29.14,10.03c-20.31-0.63-18.26,16.48-30.71,29.76c-30.2,32.21-71.35,54.62-105.68,82.04
			c-7.21,5.76-37.1,26.55-32.04,40.6c4.06,11.29,23.76,11.84,34.05,13.06c25.41,3.02,51.25,2.3,76.58,5.66
			c10.56,1.4,33.07,1.93,40.5,11.96c4.68,6.33,3.51,14.4,10.08,20.61c7.62,7.19,18.71,9.9,27.36,15.47
			c19.57,12.6,19.35,24.69,9.7,44.79c-12.76,26.57-32.11,48.88-40.62,77.43"/>
		<path class="st0" d="M1940.67,52.48c-5.16,20.18-11.75,41.2-14.86,61.79c-3.69,24.36,15.21,40.26,31.51,56.69
			c20.71,20.87,39.48,36.22,38.11,67.33c-0.9,20.41-4.04,40.75-5.82,61.09c-2.04,23.35-3.1,45.9-8.34,68.87
			c-5.69,24.93-14.16,49.93-16.84,75.45c-0.58,5.49-2.92,18.94,2.11,22.8c2.47,1.9,5.4,0.42,7.26,1.61
			c7.13,4.6,11.05-2.03,11.08,12.63c0.03,15.3-8.28,17.67-17.59,26.5c-11.83,11.23-11.16,26.83-19.74,40.5
			c-16.49,26.29-44.06,45.83-64.43,69.04c-7.06,8.04-17.42,18.48-16.82,29.88c0.77,14.57,18.54,17.84,30.8,20.87
			c20.15,4.98,69.76,4.24,82.5,24.1c3.59,5.6,1.87,14.64,5.68,20.55c3.8,5.9,9.34,7.46,13.89,12.19
			c13.04,13.56,8.94,26.17,2.47,42.62c-11.51,29.3-29.69,54.92-38.08,85.46"/>
		<path class="st0" d="M2008.62,14.06c-2.39,27.46-6.03,54.75-9.31,82.11c-2,16.71-11.06,43.79,2.93,57.33
			c11.47,11.11,32.62,11,42.43,24.04c8.85,11.75,8.23,31.89,11.8,45.99c5.42,21.44,12.5,42.42,17.76,63.9
			c6.06,24.71,4.44,37.22-7.38,60.09c-13.39,25.89-30.66,49.7-43.27,76c-4.74,9.9-10.86,22.37-8.94,33.45
			c1.15-5.08,1.94-10.22,3.21-15.26c1.56,28.45-5.18,56.41-6.44,84.81c-0.99,22.46-6.75,38.88-14.29,60.04
			c-5.93,16.65-11.81,36.26-0.76,51.48c14.51,19.98,48.97,18.2,61.79,39.71c5.91,9.91,3.87,19.86,2.55,31.15
			c-6.48,55.33-31.8,104.91-40.41,159.6"/>
		<path class="st0" d="M2066.35-0.79c-1.52,31.03-4.93,61.84-7.84,92.76c-1.49,15.84-11.12,50.03,2.53,63.04
			c9.61,9.16,27.79,2.74,37.41,12.03c9.6,9.27,8.93,30.86,13.06,43.48c13.65,41.74,47.64,82.96,23.55,126.1
			c-15.25,27.3-36.03,51.16-52.06,77.98c-7.17,11.99-15.47,24.98-13.48,39.54c-2.58-6.49-3.89-13.44-6.75-19.79
			c0.76,32.26,3.91,64.33,3.71,96.58c-0.18,28.91-12.42,76.71,4.83,101.15c18.33,25.97,67.02,37.78,46.43,75.59
			c-7.75,14.24-7.16,29.7-11.09,46.31c-9.53,40.31-24.85,78.8-30.55,119.95"/>
		<path class="st0" d="M2121.2-0.8c-1.14,33.47-4.56,66.78-6.43,100.21c-1.37,24.46-0.17,35.85,20.58,48.87
			c19.77,12.4,24.39,15.99,29.07,37.97c5.57,26.16,26.21,47.19,37.02,71.08c11.76,25.99,0.76,47.13-11.39,71.13
			c-15.72,31.05-38.78,62.48-47.45,96.5c-5.22,20.49-7.55,23.22-29.12,23.13c-13.24-0.05-33.49-5.14-36.33,12.16
			c-5.75,34.95,55.52,40.13,41.8,81.53c-4.76,14.37-17.92,23.01-24.61,36.17c-10.51,20.67-1.39,36.01,11.72,53.01
			c16.2,21.01,47.93,43.26,55.87,69.98c4.15,13.97-1.08,27.2-4.11,40.54c-3.71,16.38-2.71,32.84-7.05,49.23
			c-6.27,23.62-16.1,45.26-18.34,69.87"/>
		<path class="st0" d="M2176.06-0.85c-0.09,26.07-1.38,52.1-1.85,78.16c-0.46,25.15,4.57,37.72,21.5,55.71
			c7.99,8.49,17.95,16.3,23.57,26.78c4.09,7.63,3.34,15.46,5.85,23.26c6.31,19.65,28.75,28.12,40.07,44.03
			c15.32,21.52,0.78,49.25-7.3,71.26c-13.38,36.42-31.91,72.77-39.56,110.99c-6.11,30.49-33.37,34.34-61.04,41
			c-11.55,2.78-77.91,11.33-78.3,33.85c-0.5,28.58,122.77,18.65,90.78,55.34c-12.12,13.91-36.47,12.07-51.52,21.13
			c-25.77,15.51-4.18,42.05,8.43,60.53c21.14,30.98,58.05,66.15,69.21,103.19c5.39,17.88,1.43,39.7,0.63,58.07
			c-0.6,13.93,2.3,31.25-2.17,44.38c-3.43,10.09-11.01,16.2-9.52,28.02"/>
		<path class="st0" d="M2230.9-0.82c0,22.61-0.01,45.21-0.01,67.82c0,27.12,6.65,41.69,23.5,63.41c6.08,7.83,12.81,15.59,17.7,24.26
			c5.56,9.85,4.89,18.83,9.46,28.41c8.23,17.26,27.78,19.71,39.87,33.21c16.09,17.98,1.73,47.6-4.46,67.69
			c-12.64,41.08-28.49,81.33-37.53,123.43c-6.52,30.35-48.19,36.23-74.45,44.55c-21.55,6.83-44.57,12.71-65.01,22.41
			c-6.02,2.86-23.73,10.27-24.15,19.12c-1.28,27.28,137.55,9.02,109.93,43.77c-12.36,15.56-47.85,10.94-64.53,18.75
			c-28.49,13.34-4,41.99,8.28,61.47c14.38,22.8,30.27,44.64,45.17,67.09c10.49,15.8,26.78,36.1,30.31,55.14
			c3.25,17.47,0.55,37.32,0.55,55.03c0,16.45,3.77,37.46-2.86,52.96c-5.7,13.34-13.64,18.97-15.81,34.79"/>
		<path class="st0" d="M2285.75-0.82c-0.03,44.48-1.21,88.65,3.43,132.92c1.77,16.87,0.8,37.83,6.7,53.87
			c7.07,19.2,24.36,33.38,34.88,50.56c14.57,23.8,6.2,45-1.26,70.53c-8.48,29.03-20.26,57.78-25.41,87.67
			c-4.9,28.44-21.22,41.49-43.19,60.1c-13.31,11.27-47.52,31.97-47.06,52.48c0.75,33.12,82.56-15.17,69.63,30.79
			c-5.06,17.96-25.05,31.31-35.08,46.17c-15.75,23.33-4.69,42.98,7.52,65.93c14.51,27.25,35.18,54.41,42.43,84.69
			c4.58,19.14,2.03,41.69,2.03,61.39c0,17.94,2.63,38.09-4.4,55.06c-6.81,16.46-16.46,26.56-19.79,45.11"/>
		<path class="st0" d="M2340.6-0.8c-0.06,29.9,0.28,59.88-0.36,89.78c-0.55,26.03-9.09,35.28-28.62,51.69
			c-15.93,13.38-25.84,24.71-20.86,46.32c7.15,31.02,25.34,58.56,34.87,88.82c13.58,43.12-15.61,78.71-13.02,121.03
			c2.83,46.24,10.99,92.87,15.47,139.07c5.22-3.46,7.6-10.52,11.8-15.37c5.35,33.37,4.16,70.35,5.98,104.7
			c1.72,32.4,5.52,63.39,9,95.53c3.33,30.68,0.38,63.15,0.38,94.04c0,14.71,0.32,27.73-6.41,41.08
			c-6.06,12.03-10.3,18.11-12.16,32.28"/>
		<path class="st0" d="M2395.45-0.81c-0.07,31.79,0.33,63.7-0.46,95.48c-0.31,12.34,1.45,21.46-8.78,30.67
			c-9.94,8.94-24.94,12.4-36.78,17.77c-24.07,10.91-35.55,19.46-29.35,46.92c8.21,36.34,24.52,70.43,33.18,106.65
			c8.31,34.78-10.45,65.77-5.21,99.68c4.97,32.19,29.32,64.09,43.83,92.5c6.15,12.04,25.84,42.43,16.06,54.9
			c-4.02-6.88-5.56-17.03-11.35-22.43c-5.1,14.37,3.14,36.6,6.35,50.34c6.76,28.92,15.56,57.44,21.14,86.63
			c2.98,15.6,4.89,29.83-0.74,44.94c-3.01,8.08-8.19,15-10.73,23.31c-7.96,26.08-2.57,59.76-2.57,86.85
			c0,13.63,1.17,26.81-4.73,39.4c-4.86,10.37-10.28,16.07-9.86,28.72"/>
		<path class="st0" d="M2450.3-0.81c-0.07,29.21-0.3,58.42-0.43,87.64c-0.13,28.49-3.62,39.2-27.07,56.85
			c-17.1,12.87-29.52,22.78-27.62,45.52c2.42,28.89,16.15,57.56,22.66,85.65c8.08,34.83-2.1,64.83-1.76,99.45
			c0.23,23.36,11.04,44.68,20.15,65.76c8.93,20.67,25.18,46.14,24.53,69.41c-0.47,16.85-5.29,5.78-6.62,8.59
			c-2.98,6.25-3.56,15.12-2.41,25.18c5.35,46.69,28.96,96.03,18.5,143.25c-7.42,33.5-9.47,62.82-9.47,97.45
			c0,17.6,1.64,35.97-1.51,53.37c-2.74,15.15-7.86,28.63-8.95,44.23"/>
		<path class="st0" d="M2505.15-0.81c-0.11,48.25,8.56,105.38-9.84,150.88c-15.24,37.69-5.98,67.83-1.15,106.45
			c4.1,32.76-0.93,66.16-0.96,99.05c-0.04,37.14,14.94,71.84,15.59,108.81c0.45,25.63-4.46,50.71-3.38,76.44
			c1.66,39.82,9.45,78.38,6.82,118.42c-4.84,73.67-6.2,148.43-7.08,222.25"/>
	</g>
</g>
</svg>
