<?xml version="1.0" encoding="utf-8"?>
<!-- Generator: Adobe Illustrator 27.5.0, SVG Export Plug-In . SVG Version: 6.00 Build 0)  -->
<svg version="1.1" id="Layer_1" xmlns="http://www.w3.org/2000/svg" xmlns:xlink="http://www.w3.org/1999/xlink" x="0px" y="0px"
	 viewBox="0 0 2560 2880" style="enable-background:new 0 0 2560 2880;" xml:space="preserve">
<style type="text/css">
	.st0{fill:#FFFFFF;stroke:#000000;stroke-miterlimit:10;}
</style>
<rect class="st0" width="2560" height="2880"/>
<g>
	<g>
		<path d="M108.96,360.33c31.11-39.2,76.23-64.13,124.77-74.71c52.32-11.4,106.38-5.27,156.55,12.5
			c53.13,18.82,100.62,49.81,143.99,85.35c20.62,16.9,41.04,34.41,64.21,47.8c23.27,13.45,48.92,21.4,75.57,24.5
			c56.26,6.55,112.69-6.53,167.98-15.24c61.05-9.62,122.25-10.38,183.84-6.45c122.55,7.81,244.85,29.08,367.42,9.52
			c61.5-9.81,121.41-27.26,181.12-44.58c62.28-18.06,124.55-36.13,186.83-54.19c15.16-4.4,30.33-8.8,45.49-13.19
			c3.08-0.89,1.77-5.72-1.33-4.82c-62.28,18.06-124.55,36.13-186.83,54.19c-60.74,17.62-121.36,36.41-183.25,49.63
			c-62.64,13.38-125.68,18.18-189.64,15.78c-62.15-2.33-123.94-9.77-185.89-14.84c-61.61-5.04-123.78-7.78-185.34-0.59
			c-57.54,6.72-114.42,22.03-172.66,21.46c-29.33-0.29-58.73-5.14-85.49-17.52c-26.11-12.07-48.59-30.4-70.65-48.54
			c-41.61-34.22-85.36-65.14-135.39-85.91c-90.62-37.63-202.16-37.14-279.54,29.8c-9.27,8.02-17.68,16.91-25.3,26.51
			C103.45,359.29,106.96,362.86,108.96,360.33L108.96,360.33z"/>
	</g>
</g>
<g>
	<g>
		<path d="M509.04,1027.66c73.8-41.99,153.69-77.51,238.27-89.98c41.51-6.12,84.18-6.15,125.31,2.63
			c42.71,9.11,81.53,28.34,117.81,52.26c36.81,24.28,71.56,51.63,107.48,77.18c35.45,25.22,71.59,49.54,109.21,71.42
			c71.69,41.7,149.5,74.57,232.36,84.69c76.66,9.36,157.43-0.18,225.73-37.9c8.53-4.71,16.8-9.86,24.83-15.38
			c2.64-1.81,0.14-6.15-2.52-4.32c-65.94,45.29-147.25,60.59-226.13,54.75c-84.58-6.26-164.6-37.22-238.08-78.36
			c-38.26-21.42-74.94-45.53-110.81-70.7c-35.78-25.11-70.36-51.92-106.31-76.77c-35.48-24.52-73.14-45.91-114.94-57.47
			c-38.9-10.76-79.72-13.39-119.84-9.86c-83.64,7.35-163.71,39.16-237.27,78.28c-9.28,4.93-18.48,10.02-27.61,15.22
			C503.72,1024.94,506.23,1029.26,509.04,1027.66L509.04,1027.66z"/>
	</g>
</g>
<g>
	<g>
		<path d="M409.75,1677.85c74.97-46.85,151.59-91.5,232.12-128.18c79.68-36.29,163.63-64.75,250.58-76.84
			c43.74-6.08,88.09-7.82,132.16-4.72c46.97,3.3,93.41,11.9,139.16,22.83c90.64,21.66,178.86,52.64,270.12,71.78
			c86.95,18.23,178.45,26.55,265.6,4.91c10.89-2.7,21.64-5.9,32.27-9.51c3.03-1.03,1.73-5.86-1.33-4.82
			c-87.87,29.85-182.37,25.89-272.46,9.11c-91.55-17.05-179.76-47.56-269.83-70.58c-88.56-22.63-178.59-36.15-270.04-27.04
			c-85.55,8.52-168.59,33.46-247.55,66.87c-81.89,34.64-159.7,78.21-235.42,124.62c-9.32,5.71-18.61,11.47-27.88,17.27
			C404.5,1675.24,407.01,1679.57,409.75,1677.85L409.75,1677.85z"/>
	</g>
</g>
<g>
	<g>
		<path d="M514.04,2211.97c75.61-29.23,152.55-54.96,230.57-76.99c76.66-21.65,156.19-43.57,236.58-39.95
			c79.46,3.58,150.25,40.18,225.25,62.38c73.78,21.84,150.71,31.27,227.47,33.52c78.45,2.3,156.9-2.72,235.02-9.49
			c9.56-0.83,19.11-1.68,28.66-2.55c3.18-0.29,3.21-5.29,0-5c-78.1,7.11-156.44,13.14-234.93,12.56
			c-78.6-0.58-157.51-7.93-233.69-27.94c-74.3-19.52-144.07-56.75-220.89-66.24c-79.33-9.8-158.83,9.13-234.95,29.65
			c-78.63,21.19-156.26,46.1-232.55,74.62c-9.31,3.48-18.6,7.02-27.87,10.6C509.74,2208.3,511.03,2213.13,514.04,2211.97
			L514.04,2211.97z"/>
	</g>
</g>
<g>
	<g>
		<path d="M2097.96,236.53c-12.53,5.66-21.52,16.62-26.74,29.13c-5.31,12.7-6.88,27.03-5.08,40.64c2.3,17.34,9.41,33.65,17.47,49.01
			c8.34,15.9,17.95,31.13,25.43,47.48c7.44,16.29,12.97,34.07,11.88,52.17c-0.13,2.18-0.36,4.36-0.69,6.52
			c-0.21,1.33,0.34,2.69,1.75,3.08c1.19,0.33,2.87-0.4,3.08-1.75c2.81-18.09-0.97-36.21-7.64-53.05
			c-6.64-16.79-15.92-32.26-24.64-48.01c-8.36-15.11-16.26-30.71-20.15-47.64c-3.11-13.52-2.97-27.64,1.16-40.94
			c3.78-12.14,11.12-23.49,22.25-30.04c1.44-0.85,2.93-1.61,4.45-2.3c1.23-0.56,1.53-2.34,0.9-3.42
			C2100.64,236.16,2099.2,235.97,2097.96,236.53L2097.96,236.53z"/>
	</g>
</g>
<g>
	<g>
		<path d="M609.94,1192.21c-9.18-1.42-18.2,2.57-24.21,9.51c-3.01,3.48-5.33,7.58-6.56,12.03c-1.29,4.71-1.3,9.71-0.44,14.5
			c1.73,9.64,7.4,18.55,14.74,24.91c7.29,6.33,18.67,11.86,28.11,6.74c7.46-4.05,11.59-16.07,4.4-22.31c-1.02-0.88-2.53-1-3.54,0
			c-0.9,0.9-1.02,2.65,0,3.54c2.12,1.84,2.64,4.35,2.06,6.94c-0.62,2.78-2.25,5.44-4.57,6.98c-6.94,4.59-16.61-0.14-22.33-4.92
			c-12.19-10.21-19.8-28.71-9.82-42.98c4.56-6.52,12.67-11.38,20.83-10.12c1.33,0.21,2.69-0.34,3.08-1.75
			C612.01,1194.1,611.28,1192.42,609.94,1192.21L609.94,1192.21z"/>
	</g>
</g>
<g>
	<g>
		<path d="M1991.71,1862.17c-1.85,14.4,4.81,29.49,16.14,38.42c5.86,4.62,12.67,7.47,20.08,8.36c7.03,0.85,14.37-0.2,20.94-2.83
			c7.71-3.09,14.39-8.14,19.16-14.97c1.03-1.47-0.14-3.11-1.49-3.67c-17.44-7.27-36.87-9.14-55.41-5.62
			c-1.33,0.25-2.08,1.85-1.75,3.08c0.38,1.39,1.74,2,3.08,1.75c17.69-3.36,36.16-1.3,52.75,5.62c-0.5-1.22-1-2.45-1.49-3.67
			c-7.35,10.52-20.5,16.23-33.18,15.56c-13.16-0.7-24.39-9.1-30.19-20.72c-3.28-6.57-4.58-14-3.65-21.29c0.17-1.34-1.27-2.5-2.5-2.5
			C1992.71,1859.67,1991.88,1860.82,1991.71,1862.17L1991.71,1862.17z"/>
	</g>
</g>
<g>
	<g>
		<path d="M443.67,2537.17c-17.42,0.05-34.84,0.09-52.26,0.14c0,1.67,0,3.33,0,5c7.3-0.55,14.6-1.1,21.91-1.66
			c2.26-0.17,3.17-2.57,1.77-4.27c-9.25-11.21-24.06-17.44-38.52-16.87c-4.1,0.16-8.2,0.86-12.11,2.12c-2.51,0.81-2.22,3.91,0,4.82
			c22.25,9.12,45.18,16.59,68.54,22.29c6.61,1.61,13.25,3.08,19.92,4.42c2.29,0.46,4.4-2.37,2.43-4.18
			c-15.14-13.88-30.28-27.77-45.42-41.65c-4.27-3.92-8.55-7.84-12.82-11.76c-2.37-2.17-5.91,1.36-3.54,3.54
			c15.14,13.88,30.28,27.77,45.42,41.65c4.27,3.92,8.55,7.84,12.82,11.76c0.81-1.39,1.62-2.79,2.43-4.18
			c-23.58-4.72-46.81-11.18-69.42-19.36c-6.4-2.31-12.74-4.77-19.04-7.35c0,1.61,0,3.21,0,4.82c12.62-4.06,26.72-1.63,37.57,5.87
			c3.07,2.13,5.81,4.71,8.19,7.59c0.59-1.42,1.18-2.85,1.77-4.27c-7.3,0.55-14.6,1.1-21.91,1.66c-3.17,0.24-3.26,5.01,0,5
			c17.42-0.05,34.84-0.09,52.26-0.14C446.88,2542.16,446.89,2537.16,443.67,2537.17L443.67,2537.17z"/>
	</g>
</g>
<g>
	<g>
		<path d="M2543.23,2143.1c-51.6-11.69-113.59-23.46-156.77,16.14c-19.64,18.01-26.67,42.96-24.93,69.06
			c1.82,27.36,11.3,53.71,11.41,81.23c0.1,23.44-6.26,49.8-28.41,61.88c-12.98,7.07-28.31,7.58-42.73,6.72
			c-13.85-0.83-27.66-2.68-41.46-4.09c-54.99-5.65-114.48-9.5-164.14,19.43c-23.99,13.98-43.86,33.71-63.52,53.04
			c-20.5,20.16-41.72,39.48-64.17,57.46c-45.39,36.34-94.9,67.41-147.21,92.75c-95.92,46.47-199.52,75.39-293.8,125.43
			c-46.4,24.63-89.8,54.71-126.52,92.45c-40.4,41.53-73.16,89.62-111.9,132.61c-9.42,10.46-19.2,20.57-29.44,30.23
			c-2.35,2.21,1.19,5.74,3.54,3.54c41.68-39.3,74.7-86.29,111.59-129.85c35.51-41.92,75.74-77.65,122.75-106.22
			c90.28-54.88,192.68-84.7,288.98-126.74c51.3-22.4,100.5-48.97,146.32-81.2c22.9-16.11,44.94-33.44,65.99-51.9
			c21.33-18.71,40.8-39.32,61.77-58.39c21.52-19.57,45.21-35.74,73.43-43.83c27.58-7.9,56.59-8.71,85.06-7.22
			c28.38,1.48,56.52,6.28,84.88,7.62c23.25,1.1,47.03-3.6,61.11-23.81c12.58-18.06,14.24-42.13,12.21-63.38
			c-2.68-28.03-12.74-55.27-10.8-83.72c1.94-28.37,18.9-50.68,43.81-63.43c26.55-13.59,57-14.17,85.96-10.02
			c15.37,2.2,30.53,5.62,45.66,9.05C2545.04,2148.63,2546.37,2143.81,2543.23,2143.1L2543.23,2143.1z"/>
	</g>
</g>
</svg>
